<svg width="318" height="125" viewBox="0 0 318 125" fill="none" xmlns="http://www.w3.org/2000/svg">
<mask id="path-1-outside-1_253_34" maskUnits="userSpaceOnUse" x="0" y="0" width="318" height="125" fill="black">
<rect fill="white" width="318" height="125"/>
<path d="M107.673 94.4826C107.673 94.7587 107.449 94.9826 107.173 94.9826H94.9122C94.6361 94.9826 94.4122 95.2064 94.4122 95.4826V111.593C94.4122 111.869 94.1884 112.093 93.9122 112.093H62.2595C61.9834 112.093 61.7595 111.869 61.7595 111.593V95.4826C61.7595 95.2064 61.5357 94.9826 61.2595 94.9826H10.5C10.2239 94.9826 10 94.7587 10 94.4826V73.7502C10 73.6487 10.0309 73.5496 10.0886 73.4661L52.1996 12.4972C52.293 12.3621 52.4468 12.2814 52.611 12.2814H85.9221C86.3212 12.2814 86.5594 12.726 86.3385 13.0583L49.7284 68.1121C49.5074 68.4444 49.7456 68.8889 50.1447 68.8889H62.2576C62.5338 68.8889 62.7576 68.6651 62.7576 68.3889V54.132C62.7576 53.8559 62.9815 53.632 63.2576 53.632H93.9122C94.1884 53.632 94.4122 53.8559 94.4122 54.132V68.3889C94.4122 68.6651 94.6361 68.8889 94.9122 68.8889H107.173C107.449 68.8889 107.673 69.1128 107.673 69.3889V94.4826ZM157.567 114.375C148.726 114.375 140.884 112.331 134.04 108.243C127.29 104.061 121.967 98.072 118.07 90.2772C114.267 82.3873 112.366 73.024 112.366 62.1873C112.366 51.3506 114.267 42.0348 118.07 34.24C121.967 26.3501 127.29 20.3614 134.04 16.2739C140.884 12.0913 148.726 10 157.567 10C166.407 10 174.202 12.0913 180.951 16.2739C187.795 20.3614 193.119 26.3501 196.921 34.24C200.818 42.0348 202.767 51.3506 202.767 62.1873C202.767 73.024 200.818 82.3873 196.921 90.2772C193.119 98.072 187.795 104.061 180.951 108.243C174.202 112.331 166.407 114.375 157.567 114.375ZM157.567 87.4254C165.171 87.4254 168.974 79.0127 168.974 62.1873C168.974 45.3619 165.171 36.9492 157.567 36.9492C149.962 36.9492 146.16 45.3619 146.16 62.1873C146.16 79.0127 149.962 87.4254 157.567 87.4254ZM307.909 94.4826C307.909 94.7587 307.685 94.9826 307.409 94.9826H295.148C294.872 94.9826 294.648 95.2064 294.648 95.4826V111.593C294.648 111.869 294.425 112.093 294.148 112.093H262.496C262.22 112.093 261.996 111.869 261.996 111.593V95.4826C261.996 95.2064 261.772 94.9826 261.496 94.9826H210.736C210.46 94.9826 210.236 94.7587 210.236 94.4826V73.7502C210.236 73.6487 210.267 73.5496 210.325 73.4661L252.436 12.4972C252.529 12.3621 252.683 12.2814 252.847 12.2814H286.158C286.557 12.2814 286.796 12.726 286.575 13.0583L249.965 68.1121C249.744 68.4444 249.982 68.8889 250.381 68.8889H262.494C262.77 68.8889 262.994 68.6651 262.994 68.3889V54.132C262.994 53.8559 263.218 53.632 263.494 53.632H294.148C294.425 53.632 294.648 53.8559 294.648 54.132V68.3889C294.648 68.6651 294.872 68.8889 295.148 68.8889H307.409C307.685 68.8889 307.909 69.1128 307.909 69.3889V94.4826Z"/>
</mask>
<path d="M134.04 108.243L128.772 116.743L128.842 116.787L128.912 116.829L134.04 108.243ZM118.07 90.2772L109.061 94.6186L109.093 94.6842L109.125 94.7493L118.07 90.2772ZM118.07 34.24L109.104 29.8111L109.093 29.8334L109.082 29.8558L118.07 34.24ZM134.04 16.2739L139.22 24.8275L139.237 24.8171L139.254 24.8067L134.04 16.2739ZM180.951 16.2739L175.683 24.774L175.753 24.8172L175.824 24.8593L180.951 16.2739ZM196.921 34.24L187.912 38.5814L187.944 38.647L187.977 38.7121L196.921 34.24ZM196.921 90.2772L187.955 85.8483L187.944 85.8706L187.933 85.8929L196.921 90.2772ZM180.951 108.243L186.131 116.797L186.148 116.787L186.166 116.776L180.951 108.243ZM249.965 68.1121L241.638 62.5748L249.965 68.1121ZM286.575 13.0583L278.248 7.52095L286.575 13.0583ZM252.436 12.4972L244.208 6.81411L252.436 12.4972ZM210.325 73.4661L218.553 79.1492L210.325 73.4661ZM49.7284 68.1121L41.4014 62.5748L49.7284 68.1121ZM52.1996 12.4972L60.4277 18.1804L52.1996 12.4972ZM10.0886 73.4661L1.86048 67.7829L10.0886 73.4661ZM107.173 84.9826H94.9122V104.983H107.173V84.9826ZM84.4122 95.4826V111.593H104.412V95.4826H84.4122ZM93.9122 102.093H62.2595V122.093H93.9122V102.093ZM71.7595 111.593V95.4826H51.7595V111.593H71.7595ZM61.2595 84.9826H10.5V104.983H61.2595V84.9826ZM20 94.4826V73.7502H0V94.4826H20ZM18.3167 79.1492L60.4277 18.1804L43.9715 6.81411L1.86048 67.7829L18.3167 79.1492ZM52.611 22.2814H85.9221V2.28141H52.611V22.2814ZM78.0115 7.52096L41.4014 62.5748L58.0553 73.6494L94.6654 18.5956L78.0115 7.52096ZM50.1447 78.8889H62.2576V58.8889H50.1447V78.8889ZM72.7576 68.3889V54.132H52.7576V68.3889H72.7576ZM63.2576 63.632H93.9122V43.632H63.2576V63.632ZM84.4122 54.132V68.3889H104.412V54.132H84.4122ZM94.9122 78.8889H107.173V58.8889H94.9122V78.8889ZM97.6729 69.3889V94.4826H117.673V69.3889H97.6729ZM157.567 104.375C150.329 104.375 144.296 102.721 139.167 99.6579L128.912 116.829C137.471 121.94 147.123 124.375 157.567 124.375V104.375ZM139.307 99.7432C134.285 96.6307 130.166 92.1097 127.014 85.805L109.125 94.7493C113.768 104.034 120.296 111.491 128.772 116.743L139.307 99.7432ZM127.078 85.9358C124.065 79.6826 122.366 71.8695 122.366 62.1873H102.366C102.366 74.1785 104.47 85.0919 109.061 94.6186L127.078 85.9358ZM122.366 62.1873C122.366 52.5002 124.066 44.7561 127.057 38.6242L109.082 29.8558C104.468 39.3135 102.366 50.201 102.366 62.1873H122.366ZM127.035 38.6689C130.19 32.283 134.283 27.8174 139.22 24.8275L128.859 7.72028C120.298 12.9055 113.744 20.4172 109.104 29.8111L127.035 38.6689ZM139.254 24.8067C144.371 21.68 150.372 20 157.567 20V0C147.08 0 137.397 2.50263 128.825 7.74106L139.254 24.8067ZM157.567 20C164.763 20 170.691 21.6804 175.683 24.774L186.219 7.77378C177.712 2.50218 168.051 0 157.567 0V20ZM175.824 24.8593C180.822 27.8444 184.873 32.2746 187.912 38.5814L205.929 29.8986C201.364 20.4256 194.769 12.8785 186.078 7.68845L175.824 24.8593ZM187.977 38.7121C191.031 44.8216 192.767 52.5331 192.767 62.1873H212.767C212.767 50.168 210.605 39.248 205.865 29.7679L187.977 38.7121ZM192.767 62.1873C192.767 71.8366 191.033 79.6175 187.955 85.8483L205.887 94.7061C210.604 85.1571 212.767 74.2114 212.767 62.1873H192.767ZM187.933 85.8929C184.896 92.1185 180.821 96.6036 175.737 99.7105L186.166 116.776C194.77 111.518 201.341 104.026 205.909 94.6614L187.933 85.8929ZM175.771 99.6897C170.766 102.721 164.806 104.375 157.567 104.375V124.375C168.008 124.375 177.638 121.941 186.131 116.797L175.771 99.6897ZM157.567 97.4254C161.438 97.4254 165.219 96.3104 168.493 93.8961C171.652 91.5661 173.786 88.4388 175.234 85.2345C178.021 79.0683 178.974 71.0411 178.974 62.1873H158.974C158.974 70.1589 158.025 74.7507 157.009 76.9972C156.556 77.9993 156.314 78.0268 156.622 77.8C156.78 77.6831 156.993 77.5699 157.226 77.496C157.453 77.4244 157.586 77.4254 157.567 77.4254V97.4254ZM178.974 62.1873C178.974 53.3335 178.021 45.3063 175.234 39.1401C173.786 35.9358 171.652 32.8085 168.493 30.4785C165.219 28.0642 161.438 26.9492 157.567 26.9492V46.9492C157.586 46.9492 157.453 46.9502 157.226 46.8786C156.993 46.8047 156.78 46.6915 156.622 46.5746C156.314 46.3478 156.556 46.3752 157.009 47.3773C158.025 49.6239 158.974 54.2157 158.974 62.1873H178.974ZM157.567 26.9492C153.695 26.9492 149.914 28.0642 146.641 30.4785C143.481 32.8085 141.347 35.9358 139.899 39.1401C137.112 45.3063 136.16 53.3335 136.16 62.1873H156.16C156.16 54.2157 157.108 49.6238 158.124 47.3773C158.577 46.3752 158.819 46.3478 158.511 46.5746C158.353 46.6915 158.141 46.8047 157.907 46.8786C157.68 46.9502 157.547 46.9492 157.567 46.9492V26.9492ZM136.16 62.1873C136.16 71.0411 137.112 79.0683 139.899 85.2345C141.347 88.4388 143.481 91.5661 146.641 93.8961C149.914 96.3104 153.695 97.4254 157.567 97.4254V77.4254C157.547 77.4254 157.68 77.4244 157.907 77.496C158.141 77.5699 158.353 77.6831 158.511 77.8C158.819 78.0268 158.577 77.9994 158.124 76.9973C157.108 74.7507 156.16 70.1589 156.16 62.1873H136.16ZM307.409 84.9826H295.148V104.983H307.409V84.9826ZM284.648 95.4826V111.593H304.648V95.4826H284.648ZM294.148 102.093H262.496V122.093H294.148V102.093ZM271.996 111.593V95.4826H251.996V111.593H271.996ZM261.496 84.9826H210.736V104.983H261.496V84.9826ZM220.236 94.4826V73.7502H200.236V94.4826H220.236ZM218.553 79.1492L260.664 18.1804L244.208 6.81411L202.097 67.7829L218.553 79.1492ZM252.847 22.2814H286.158V2.28141H252.847V22.2814ZM278.248 7.52095L241.638 62.5748L258.292 73.6494L294.902 18.5956L278.248 7.52095ZM250.381 78.8889H262.494V58.8889H250.381V78.8889ZM272.994 68.3889V54.132H252.994V68.3889H272.994ZM263.494 63.632H294.148V43.632H263.494V63.632ZM284.648 54.132V68.3889H304.648V54.132H284.648ZM295.148 78.8889H307.409V58.8889H295.148V78.8889ZM297.909 69.3889V94.4826H317.909V69.3889H297.909ZM307.409 78.8889C302.162 78.8889 297.909 74.6356 297.909 69.3889H317.909C317.909 63.59 313.208 58.8889 307.409 58.8889V78.8889ZM284.648 68.3889C284.648 74.1879 289.349 78.8889 295.148 78.8889V58.8889C300.395 58.8889 304.648 63.1422 304.648 68.3889H284.648ZM294.148 63.632C288.902 63.632 284.648 59.3787 284.648 54.132H304.648C304.648 48.333 299.947 43.632 294.148 43.632V63.632ZM272.994 54.132C272.994 59.3787 268.741 63.632 263.494 63.632V43.632C257.695 43.632 252.994 48.333 252.994 54.132H272.994ZM262.494 78.8889C268.293 78.8889 272.994 74.1879 272.994 68.3889H252.994C252.994 63.1422 257.247 58.8889 262.494 58.8889V78.8889ZM241.638 62.5748C236.997 69.5535 242 78.8889 250.381 78.8889V58.8889C257.963 58.8889 262.49 67.3353 258.292 73.6494L241.638 62.5748ZM286.158 22.2814C278.576 22.2814 274.049 13.8349 278.248 7.52095L294.902 18.5956C299.542 11.617 294.539 2.28141 286.158 2.28141V22.2814ZM260.664 18.1804C258.89 20.7485 255.968 22.2814 252.847 22.2814V2.28141C249.398 2.28141 246.168 3.97571 244.208 6.81411L260.664 18.1804ZM220.236 73.7502C220.236 75.679 219.649 77.5622 218.553 79.1492L202.097 67.7829C200.885 69.5371 200.236 71.6184 200.236 73.7502H220.236ZM107.173 78.8889C101.926 78.8889 97.6729 74.6356 97.6729 69.3889H117.673C117.673 63.59 112.972 58.8889 107.173 58.8889V78.8889ZM210.736 84.9826C215.983 84.9826 220.236 89.2359 220.236 94.4826H200.236C200.236 100.282 204.937 104.983 210.736 104.983V84.9826ZM84.4122 68.3889C84.4122 74.1879 89.1132 78.8889 94.9122 78.8889V58.8889C100.159 58.8889 104.412 63.1422 104.412 68.3889H84.4122ZM271.996 95.4826C271.996 89.6836 267.295 84.9826 261.496 84.9826V104.983C256.249 104.983 251.996 100.729 251.996 95.4826H271.996ZM93.9122 63.632C88.6655 63.632 84.4122 59.3787 84.4122 54.132H104.412C104.412 48.333 99.7112 43.632 93.9122 43.632V63.632ZM262.496 102.093C267.742 102.093 271.996 106.346 271.996 111.593H251.996C251.996 117.392 256.697 122.093 262.496 122.093V102.093ZM72.7576 54.132C72.7576 59.3787 68.5043 63.632 63.2576 63.632V43.632C57.4587 43.632 52.7576 48.333 52.7576 54.132H72.7576ZM284.648 111.593C284.648 106.346 288.902 102.093 294.148 102.093V122.093C299.947 122.093 304.648 117.392 304.648 111.593H284.648ZM62.2576 78.8889C68.0566 78.8889 72.7576 74.1879 72.7576 68.3889H52.7576C52.7576 63.1422 57.0109 58.8889 62.2576 58.8889V78.8889ZM295.148 84.9826C289.349 84.9826 284.648 89.6836 284.648 95.4826H304.648C304.648 100.729 300.395 104.983 295.148 104.983V84.9826ZM41.4014 62.5748C36.7607 69.5535 41.7641 78.8889 50.1447 78.8889V58.8889C57.7272 58.8889 62.2541 67.3353 58.0553 73.6494L41.4014 62.5748ZM307.409 104.983C313.208 104.983 317.909 100.282 317.909 94.4826H297.909C297.909 89.2359 302.162 84.9826 307.409 84.9826V104.983ZM85.9221 22.2814C78.3395 22.2814 73.8128 13.8349 78.0115 7.52096L94.6654 18.5956C99.3061 11.617 94.3029 2.28141 85.9221 2.28141V22.2814ZM60.4277 18.1804C58.654 20.7485 55.732 22.2814 52.611 22.2814V2.28141C49.1615 2.28141 45.932 3.97571 43.9715 6.81411L60.4277 18.1804ZM20 73.7502C20 75.679 19.4129 77.5622 18.3167 79.1492L1.86048 67.7829C0.648915 69.5371 0 71.6184 0 73.7502H20ZM10.5 84.9826C15.7467 84.9826 20 89.2359 20 94.4826H0C0 100.282 4.70102 104.983 10.5 104.983V84.9826ZM71.7595 95.4826C71.7595 89.6836 67.0585 84.9826 61.2595 84.9826V104.983C56.0128 104.983 51.7595 100.729 51.7595 95.4826H71.7595ZM62.2595 102.093C67.5062 102.093 71.7595 106.346 71.7595 111.593H51.7595C51.7595 117.392 56.4605 122.093 62.2595 122.093V102.093ZM84.4122 111.593C84.4122 106.346 88.6655 102.093 93.9122 102.093V122.093C99.7112 122.093 104.412 117.392 104.412 111.593H84.4122ZM94.9122 84.9826C89.1132 84.9826 84.4122 89.6836 84.4122 95.4826H104.412C104.412 100.729 100.159 104.983 94.9122 104.983V84.9826ZM107.173 104.983C112.972 104.983 117.673 100.282 117.673 94.4826H97.6729C97.6729 89.2359 101.926 84.9826 107.173 84.9826V104.983Z" fill="#119DA4" mask="url(#path-1-outside-1_253_34)"/>
</svg>
