<svg xmlns="http://www.w3.org/2000/svg" viewBox="0 0 79.35 78.99"><defs><style>.cls-1{fill:#ee6c00;}.cls-2{fill:#37474f;}.cls-3{fill:#c4c9e8;}.cls-4{fill:#a1a9da;}.cls-5{fill:#c1c6e3;}.cls-6{fill:#da4a17;}.cls-7{fill:#d84514;}</style></defs><g id="Calque_2" data-name="Calque 2"><g id="Calque_1-2" data-name="Calque 1"><path class="cls-1" d="M.79,58.58C.5,55.38,2,53.87,5.11,53c5.09-1.42,10.06-3.3,15.07-5,5.16.54,10.64,6.14,11.08,11.32C29.73,64,28,68.64,26.74,73.4c-1,3.75-3,5.45-6.86,5.57-4.95.15-9.46-.64-13.11-4.27C7,73,8.35,71.91,9.37,70.24c-1.81.69-2.86,2.27-4.58,2.47C1.86,70,.86,66.41.33,62.63,2.67,60,6,58.84,8.74,57.26,6.25,57.76,3.87,60.24.79,58.58Z"/><path class="cls-2" d="M40.89,29.69,68.18,4.94l3.32-3c2-1.86,4.28-2.92,6.55-.62s1.31,4.51-.57,6.57Q65.06,21.5,52.66,35.14c-1,1.1-1.95,2.25-2.92,3.37C45.16,38.62,40.92,34.4,40.89,29.69Z"/><path class="cls-3" d="M31.26,59.34A30,30,0,0,0,20.18,48l13.67-11.4a12.21,12.21,0,0,1,9,8.94C39.17,50.32,34.46,54.19,31.26,59.34Z"/><path class="cls-4" d="M42.84,45.57a51.4,51.4,0,0,0-9-8.94,6.08,6.08,0,0,1,3-3c4.63.8,6.77,4.45,9,8A5.18,5.18,0,0,1,42.84,45.57Z"/><path class="cls-5" d="M45.92,41.63l-9-8,4-4a13.46,13.46,0,0,0,8.85,8.82Z"/><path class="cls-6" d="M.79,58.58l10.16-3c-3,3.37-6.32,6-10.62,7C-.07,61.22-.29,59.83.79,58.58Z"/><path class="cls-7" d="M4.79,72.71c1.39-2.63,3.86-3.72,7.38-5.4-1.69,3.52-2.78,6-5.4,7.39A3,3,0,0,1,4.79,72.71Z"/></g></g></svg>