<svg xmlns="http://www.w3.org/2000/svg" viewBox="0 0 107.11 125.28"><defs><style>.cls-1{fill:#feb64d;}.cls-2{fill:#424242;}.cls-3{fill:#fea727;}.cls-4{fill:#fda727;}.cls-5{fill:#fa8c01;}.cls-6{fill:#794819;}</style></defs><g id="Calque_2" data-name="Calque 2"><g id="Calque_1-2" data-name="Calque 1"><path class="cls-1" d="M99.24,82.66c-2.22,3.27-1.88,7.25-2.93,10.85-5.67,19.5-24.6,32.78-45.46,31.71-20-1-37.46-16.41-41-36C9.42,87,9.45,84.56,7.9,82.66,7.39,79.07,7,75.49,8.47,72c.32-1.06,2.38,1.07,2.3-1.88C10.34,54,9.31,56.6,23.18,51.87c15.3-5.22,30.68-10.2,46-15.43,4-1.38,7.08-1.08,10.29,2,3.9,3.76,8.14,7.2,12.37,10.63a12.12,12.12,0,0,1,4.81,10.8c-.27,4.26.16,8.56-.34,12.88-.46.39.65.39.12,0-.19-.15-.09-.26.13-.49.62-.66,1.26-1,2.08-.32C100.19,75.44,99.75,79.05,99.24,82.66Z"/><path class="cls-2" d="M98.16,71.62l-2.93,2.25c0-5.79-.1-11,0-16.23a6.71,6.71,0,0,0-2.57-6c-5.49-4.51-10.87-9.17-16.15-13.92-1.61-1.44-3-1.46-4.89-.81Q43.29,46.47,14.84,55.83c-2.28.75-3.09,1.91-3,4.28.18,4.28.05,8.56.05,12.83C10.23,73.63,10,71.77,9,71.6c-3.15-1.45-4.91-4.07-6-7.22C2.74,52.63,2.73,40.88,8.06,30,17.3,11.1,32.42,1.09,53.51.31c1.65-.06,3.33.16,5,0C65-.58,70.54.31,73.21,7.38c.59,1.57,2.07,2,3.52,2.41,17.1,4.55,24,17.2,26.45,33.36,1.1,7.05,1,14.14,1,21.24C103.06,67.53,101.29,70.14,98.16,71.62Z"/><path class="cls-3" d="M3,64.38A31.91,31.91,0,0,1,9,71.6c-.64,3.66,1.14,7.56-1.08,11.06C-.37,78.84-2.36,71.48,3,64.38Z"/><path class="cls-4" d="M98.16,71.62a32.4,32.4,0,0,1,6-7.23c5.29,7.09,3.28,14.53-4.94,18.27C97,79.16,98.79,75.27,98.16,71.62Z"/><path class="cls-5" d="M68,101.75c-9.15,11.52-20.92,11.42-28.63,0Z"/><path class="cls-6" d="M32.69,80.66c-3.58-.52-5.91-2.45-5.79-6.14s2.46-5.81,6.12-5.65a5.41,5.41,0,0,1,5.55,5.75C38.59,78.31,36.26,80.2,32.69,80.66Z"/><path class="cls-6" d="M74.32,68.73c3.57.44,6,2.31,5.91,6s-2.33,5.86-6,5.8a5.4,5.4,0,0,1-5.67-5.63C68.45,71.21,70.74,69.28,74.32,68.73Z"/></g></g></svg>