<svg xmlns="http://www.w3.org/2000/svg" xmlns:xlink="http://www.w3.org/1999/xlink" viewBox="0 0 216 192"><defs><style>.cls-1{fill:url(#Dégradé_sans_nom_3);}.cls-2{fill:url(#Dégradé_sans_nom_3-2);}.cls-3{fill:url(#Dégradé_sans_nom_4);}.cls-4{fill:url(#Dégradé_sans_nom_5);}.cls-5{fill:url(#Dégradé_sans_nom_6);}</style><linearGradient id="Dégradé_sans_nom_3" x1="-313.5" y1="983.53" x2="-313.5" y2="1029.53" gradientTransform="matrix(4, 0, 0, -4, 1362, 4139)" gradientUnits="userSpaceOnUse"><stop offset="0" stop-color="#ff9757"/><stop offset="1" stop-color="#ffb65b"/></linearGradient><linearGradient id="Dégradé_sans_nom_3-2" x1="-299" y1="1020.84" x2="-299" y2="1033.84" xlink:href="#Dégradé_sans_nom_3"/><linearGradient id="Dégradé_sans_nom_4" x1="-269.78" y1="960.05" x2="-269.78" y2="998.37" gradientTransform="matrix(3.73, 0, 0, -3.33, 1145.14, 3427.49)" gradientUnits="userSpaceOnUse"><stop offset="0" stop-color="#a4a4a4"/><stop offset="0.63" stop-color="#7f7f7f"/><stop offset="1" stop-color="#6f6f6f"/></linearGradient><linearGradient id="Dégradé_sans_nom_5" x1="-288.53" y1="971.5" x2="-288.53" y2="997.6" gradientTransform="matrix(3.73, 0, 0, -3.33, 1145.14, 3427.49)" gradientUnits="userSpaceOnUse"><stop offset="0" stop-color="#a4a4a4"/><stop offset="0.63" stop-color="#7f7f7f"/><stop offset="1" stop-color="#6f6f6f"/></linearGradient><linearGradient id="Dégradé_sans_nom_6" x1="-313.83" y1="1012.23" x2="-312.22" y2="1038.37" gradientTransform="matrix(4, 0, 0, -4, 1362, 4139)" gradientUnits="userSpaceOnUse"><stop offset="0" stop-color="#ff634d"/><stop offset="0.2" stop-color="#fe6464"/><stop offset="0.52" stop-color="#fc6581"/><stop offset="0.79" stop-color="#fa6694"/><stop offset="0.99" stop-color="#fa669a"/><stop offset="1" stop-color="#fa669a"/></linearGradient></defs><g id="Calque_2" data-name="Calque 2"><g id="Calque_1-2" data-name="Calque 1"><path class="cls-1" d="M196,56,108,8,20,56V176a16,16,0,0,0,16,16H180a16,16,0,0,0,16-16Z"/><path class="cls-2" d="M160,0h12a8,8,0,0,1,8,8V44a8,8,0,0,1-8,8H160a8,8,0,0,1-8-8V8A8,8,0,0,1,160,0Z"/><path class="cls-3" d="M164,192H112V120a8,8,0,0,1,8-8h36a8,8,0,0,1,8,8Z"/><path class="cls-4" d="M80,152H56a8,8,0,0,1-8-8V120a8,8,0,0,1,8-8H80a8,8,0,0,1,8,8v24A8,8,0,0,1,80,152Z"/><path class="cls-5" d="M94.46,3.85,7.5,55.43A15.31,15.31,0,0,0,0,68.6H0C0,80.54,13.14,87.93,23.49,81.79L108,31.68,192.51,81.8C202.86,87.93,216,80.54,216,68.6h0a15.3,15.3,0,0,0-7.5-13.17l-87-51.58A26.56,26.56,0,0,0,94.46,3.85Z"/></g></g></svg>