<svg xmlns="http://www.w3.org/2000/svg" viewBox="0 0 87.15 77.34"><defs><style>.cls-1{fill:#788f9b;}.cls-2{fill:#bfc934;}.cls-3{fill:#546e7a;}.cls-4{fill:#bbddf9;}.cls-5{fill:#afb42d;}.cls-6{fill:#fe9904;}.cls-7{fill:#b2e2f9;}.cls-8{fill:#b0e0f7;}.cls-9{fill:#805f4d;}.cls-10{fill:#f1f3df;}.cls-11{fill:#f2f3e1;}.cls-12{fill:#f7f7f3;}.cls-13{fill:#fee739;}</style></defs><g id="Calque_2" data-name="Calque 2"><g id="Calque_1-2" data-name="Calque 1"><path class="cls-1" d="M1,63.84,17.86,26.89c3.7-4.55,10.79-4.59,14.91-.09,2.72,3.82,3.67,8.65,6.92,12.17C45,45.88,47.93,54,51.63,61.72a1.68,1.68,0,0,1-.81,2.46,6.45,6.45,0,0,1-4.3-.54,55.27,55.27,0,0,0-40.33-.06C4.52,64.21,2.82,65,1,63.84Z"/><path class="cls-2" d="M1,63.84C10.09,60.4,19.27,58,29.16,58.45c7.85.34,15,2.92,22.24,5.32,2.47-.36,4.05,1.57,6.08,2.36,7.08,6.61,15,10.78,25.13,9a3.66,3.66,0,0,1,3.55,1.28c-8.45,1.45-17,.68-25.46.76-18.07.17-36.15-.23-54.23,0C1.69,77.24-.76,76.28.21,71,.64,68.66-.49,66.1,1,63.84Z"/><path class="cls-2" d="M72.4,57.78c-1.56-1.9-2.8-4-5.84-4.18-1.76-.13-5.49-9.54-4.25-10.89,2.66-2.92.73-9.61,7.47-9.23.39,0,.86-1.26,1.3-1.93a3.81,3.81,0,0,1,3.31-1.8c2.62-.05,9.15,6.59,10.42,8.7,2.55,4.24.82,8-.09,11.93-.35,1.48-1,3.38-2.53,3.28-3.32-.23-4,2.54-5.74,4.17C75.08,58.86,73.72,60.12,72.4,57.78Z"/><path class="cls-3" d="M56.46,66.7,51.4,63.77C47.88,55.32,42.77,47.63,39.69,39l1.11-1.82c2.47-3.34,5.74-.86,8.63-1.19,6.25,8.89,10.35,18.94,15.45,28.45C62.89,68.17,59.64,67.27,56.46,66.7Z"/><path class="cls-4" d="M62.35,7.2c4.1-.27,7.95,0,9.76,4.58.6,1.54,2.19,1.13,3.32,1.64,2.49,1.11,3.06,3.23,2.74,5.7A4.06,4.06,0,0,1,73.91,23c-6.37.09-12.75.06-19.12,0-2.67,0-4-2-5.25-3.9-1.23-1.42-.4-2.73.21-4.05a5.81,5.81,0,0,1,4.83-2.92,3.72,3.72,0,0,0,3.83-2.44C59.36,8.33,60.46,7.15,62.35,7.2Z"/><path class="cls-5" d="M56.46,66.7c2.76-.94,5.81-.8,8.42-2.29l7.39.06c1.76-1.43,3,0,4.29.83,1.57.43,3.16.81,4.7,1.31,6.38,2.06,6.79,2.91,4.9,9.84a5.3,5.3,0,0,0-1,0C74,78,64.17,75.48,56.46,66.7Z"/><path class="cls-6" d="M50.73,15c-.39,1.37-.79,2.75-1.19,4.12-2.21.14-4.47.37-4-3.05a3.63,3.63,0,0,0-1.66-3.37c-1.5-1.26-1.37-2.41.13-3.56a4,4,0,0,0,1.54-3.92c-.21-2,.8-2.63,2.61-2.58a4.06,4.06,0,0,0,3.57-1.27C53.19-.39,54.48-.52,56,1.34a3.46,3.46,0,0,0,2.53,1.22c3.81-.41,3.77,2.1,3.79,4.64l-3.3,3.08c-.14.08-.32.25-.43.22C52,8.52,52,8.51,50.73,15Z"/><path class="cls-7" d="M32.77,26.8c-2.31-1.15-4.48-4.71-7.13-.39a1.41,1.41,0,0,1-1.25,0c-2.57-4.4-4.43-.43-6.53.52,1.58-3.77,3.12-7.56,4.78-11.3,1.29-2.92,2.81-3,4.32-.12Q29.89,21.12,32.77,26.8Z"/><path class="cls-8" d="M49.43,36c-2.69,1.74-5.91-.32-8.63,1.19a8.84,8.84,0,0,1,.83-2.28c1.25-1.69,1-5.09,4.16-4.63C48.75,30.68,49,33.51,49.43,36Z"/><path class="cls-9" d="M76.56,65.3l-4.29-.83q.06-3.34.13-6.69a4.61,4.61,0,0,0,4,0Q76.5,61.57,76.56,65.3Z"/><path class="cls-10" d="M80.7,41.9a2,2,0,0,1,1.83,2c.07,1.42-.81,2.08-2.17,1.92a1.66,1.66,0,0,1-1.59-2A2,2,0,0,1,80.7,41.9Z"/><path class="cls-11" d="M74.24,48.05a1.63,1.63,0,0,1-1.78,1.79c-1.08,0-1.95-.48-2-1.61a1.84,1.84,0,0,1,2-2.11A1.81,1.81,0,0,1,74.24,48.05Z"/><path class="cls-12" d="M70.42,38c1.13.21,1.81.83,1.72,2a1.68,1.68,0,0,1-1.94,1.7,1.72,1.72,0,0,1-1.72-1.95A1.8,1.8,0,0,1,70.42,38Z"/><path class="cls-13" d="M50.73,15c-.12-2.37-2.45-4.91.55-7a4.34,4.34,0,0,1,5-.22c1.1.61,1.32,2.27,2.8,2.49-.63,1.61-.36,4.11-3.53,2.94C53.64,12.52,52.17,14,50.73,15Z"/></g></g></svg>