<svg width="501" height="117" viewBox="0 0 501 117" fill="none" xmlns="http://www.w3.org/2000/svg">
<mask id="path-1-outside-1_268_79" maskUnits="userSpaceOnUse" x="0.182617" y="0.189087" width="501" height="117" fill="black">
<rect fill="white" x="0.182617" y="0.189087" width="501" height="117"/>
<path d="M96.8987 106C96.3473 106 95.9 105.554 95.8987 105.002L95.7751 53.0998C95.7727 52.0851 94.435 51.7187 93.9159 52.5906L68.3367 95.5537C68.1564 95.8565 67.83 96.0421 67.4775 96.0421H58.7848C58.4357 96.0421 58.1119 95.8601 57.9305 95.5618L32.491 53.7418C31.9655 52.878 30.6366 53.2505 30.6366 54.2615V105C30.6366 105.552 30.1889 106 29.6366 106H11.1826C10.6303 106 10.1826 105.552 10.1826 105V12.8039C10.1826 12.2516 10.6303 11.8039 11.1826 11.8039H27.6494C28 11.8039 28.3251 11.9875 28.506 12.2879L62.6075 68.9068C62.9977 69.5548 63.9383 69.5516 64.3242 68.901L97.8981 12.2937C98.0783 11.9901 98.4052 11.8039 98.7582 11.8039H115.089C115.64 11.8039 116.087 12.2498 116.089 12.801L116.352 104.997C116.354 105.551 115.906 106 115.352 106H96.8987ZM221.403 88.5064C221.956 88.5064 222.403 88.9541 222.403 89.5064V105C222.403 105.552 221.956 106 221.403 106H150.469C149.917 106 149.469 105.552 149.469 105V12.8039C149.469 12.2516 149.917 11.8039 150.469 11.8039H219.654C220.206 11.8039 220.654 12.2516 220.654 12.8039V28.2974C220.654 28.8497 220.206 29.2974 219.654 29.2974H172.134C171.582 29.2974 171.134 29.7451 171.134 30.2974V48.7515C171.134 49.3037 171.582 49.7514 172.134 49.7514H213.868C214.42 49.7514 214.868 50.1992 214.868 50.7514V65.7067C214.868 66.259 214.42 66.7067 213.868 66.7067H172.134C171.582 66.7067 171.134 67.1545 171.134 67.7067V87.5064C171.134 88.0587 171.582 88.5064 172.134 88.5064H221.403ZM311.054 106C310.726 106 310.419 105.839 310.232 105.569L292.662 80.1904C292.476 79.9206 292.168 79.7596 291.84 79.7596H273.314C272.761 79.7596 272.314 80.2074 272.314 80.7596V105C272.314 105.552 271.866 106 271.314 106H251.514C250.962 106 250.514 105.552 250.514 105V12.8039C250.514 12.2516 250.962 11.8039 251.514 11.8039H291.288C299.631 11.8039 306.852 13.1944 312.953 15.9754C319.143 18.7564 323.897 22.7037 327.217 27.8172C330.536 32.9307 332.196 38.9862 332.196 45.9836C332.196 52.981 330.491 59.0365 327.082 64.15C323.965 68.8683 319.581 72.5579 313.931 75.2188C313.36 75.4879 313.156 76.2067 313.517 76.7247L332.848 104.428C333.31 105.091 332.836 106 332.028 106H311.054ZM310.127 45.9836C310.127 40.6907 308.422 36.6537 305.013 33.8727C301.604 31.0019 296.625 29.5666 290.076 29.5666H273.314C272.761 29.5666 272.314 30.0143 272.314 30.5666V61.4006C272.314 61.9529 272.761 62.4006 273.314 62.4006H290.076C296.625 62.4006 301.604 60.9653 305.013 58.0945C308.422 55.2238 310.127 51.1868 310.127 45.9836ZM405.312 107.615C395.713 107.615 387.011 105.551 379.206 101.425C371.491 97.2083 365.391 91.422 360.905 84.0657C356.51 76.6198 354.312 68.2318 354.312 58.9019C354.312 49.572 356.51 41.2289 360.905 33.8727C365.391 26.4267 371.491 20.6404 379.206 16.5137C387.011 12.2973 395.758 10.1891 405.447 10.1891C413.61 10.1891 420.967 11.6245 427.516 14.4952C433.853 17.2359 439.21 21.1213 443.585 26.1514C443.935 26.5532 443.895 27.1588 443.503 27.52L430.965 39.0934C430.55 39.4764 429.901 39.4387 429.521 39.0217C423.273 32.18 415.607 28.7592 406.523 28.7592C400.692 28.7592 395.489 30.06 390.914 32.6616C386.338 35.1735 382.75 38.717 380.148 43.2923C377.636 47.8675 376.38 53.0707 376.38 58.9019C376.38 64.7331 377.636 69.9363 380.148 74.5116C382.75 79.0868 386.338 82.6752 390.914 85.2768C395.489 87.7887 400.692 89.0447 406.523 89.0447C415.608 89.0447 423.274 85.5819 429.521 78.6564C429.901 78.2354 430.553 78.1955 430.97 78.5801L443.509 90.1545C443.898 90.5136 443.94 91.1147 443.596 91.5171C439.219 96.6352 433.859 100.566 427.516 103.309C420.877 106.179 413.476 107.615 405.312 107.615ZM469.688 12.8039C469.688 12.2516 470.136 11.8039 470.688 11.8039H490.488C491.04 11.8039 491.488 12.2516 491.488 12.8039V105C491.488 105.552 491.04 106 490.488 106H470.688C470.136 106 469.688 105.552 469.688 105V12.8039Z"/>
</mask>
<path d="M312.953 15.9754L309.076 24.4784L309.1 24.489L309.123 24.4995L312.953 15.9754ZM327.082 64.15L319.307 58.9664L319.296 58.9825L319.285 58.9986L327.082 64.15ZM305.013 33.8727L298.994 41.0207L299.05 41.0676L299.106 41.1137L305.013 33.8727ZM305.013 58.0945L311.033 65.2425L311.033 65.2425L305.013 58.0945ZM379.206 101.425L374.725 109.625L374.781 109.656L374.838 109.686L379.206 101.425ZM360.905 84.0657L352.858 88.8165L352.892 88.8739L352.927 88.9307L360.905 84.0657ZM360.905 33.8727L352.901 29.0506L352.892 29.0649L352.884 29.0792L360.905 33.8727ZM379.206 16.5137L383.614 24.7538L383.631 24.7447L383.648 24.7355L379.206 16.5137ZM427.516 14.4952L423.764 23.0539L423.785 23.0632L423.806 23.0724L427.516 14.4952ZM390.914 32.6616L395.411 40.8531L395.472 40.8195L395.533 40.785L390.914 32.6616ZM380.148 43.2923L372.025 38.6731L371.99 38.7338L371.957 38.795L380.148 43.2923ZM380.148 74.5116L371.957 79.0089L371.99 79.0701L372.025 79.1307L380.148 74.5116ZM390.914 85.2768L386.294 93.4002L386.355 93.4347L386.416 93.4683L390.914 85.2768ZM427.516 103.309L423.806 94.7314L423.806 94.7314L427.516 103.309ZM332.848 104.428L340.511 99.0803L332.848 104.428ZM313.931 75.2188L317.913 83.6729L313.931 75.2188ZM313.517 76.7247L305.854 82.0722L313.517 76.7247ZM292.662 80.1904L300.346 74.8712L292.662 80.1904ZM310.232 105.569L302.549 110.888L310.232 105.569ZM443.509 90.1545L449.847 83.2879L443.509 90.1545ZM443.596 91.5171L450.698 97.5911L443.596 91.5171ZM429.521 78.6564L422.582 72.397L429.521 78.6564ZM430.97 78.5801L424.631 85.4468L430.97 78.5801ZM116.352 104.997L107.007 105.024L116.352 104.997ZM116.089 12.801L106.744 12.8277L116.089 12.801ZM97.8981 12.2937L105.936 17.0608L97.8981 12.2937ZM62.6075 68.9068L54.6025 73.7282L62.6075 68.9068ZM64.3242 68.901L56.2867 64.1339L64.3242 68.901ZM28.506 12.2879L36.511 7.46652L28.506 12.2879ZM430.965 39.0934L424.627 32.2268L430.965 39.0934ZM429.521 39.0217L422.62 45.323L429.521 39.0217ZM443.585 26.1514L450.636 20.0183L443.585 26.1514ZM443.503 27.52L437.165 20.6534L443.503 27.52ZM32.491 53.7418L40.4747 48.8852L32.491 53.7418ZM57.9305 95.5618L65.9142 90.7052L57.9305 95.5618ZM95.7751 53.0998L105.12 53.0776L95.7751 53.0998ZM93.9159 52.5906L85.8864 47.8101L93.9159 52.5906ZM95.8987 105.002L105.244 104.98L95.8987 105.002ZM105.244 104.98L105.12 53.0776L86.4303 53.1221L86.5539 105.025L105.244 104.98ZM85.8864 47.8101L60.3073 90.7731L76.3662 100.334L101.945 57.3712L85.8864 47.8101ZM67.4775 86.6973H58.7848V105.387H67.4775V86.6973ZM65.9142 90.7052L40.4747 48.8852L24.5072 58.5983L49.9467 100.418L65.9142 90.7052ZM21.2918 54.2615V105H39.9815V54.2615H21.2918ZM29.6366 96.6551H11.1826V115.345H29.6366V96.6551ZM19.5275 105V12.8039H0.837766V105H19.5275ZM11.1826 21.1487H27.6494V2.45902H11.1826V21.1487ZM20.501 17.1093L54.6025 73.7282L70.6125 64.0854L36.511 7.46652L20.501 17.1093ZM72.3617 73.6681L105.936 17.0608L89.8606 7.52668L56.2867 64.1339L72.3617 73.6681ZM98.7582 21.1487H115.089V2.45902H98.7582V21.1487ZM106.744 12.8277L107.007 105.024L125.697 104.97L125.434 12.7743L106.744 12.8277ZM115.352 96.6551H96.8987V115.345H115.352V96.6551ZM213.059 89.5064V105H231.748V89.5064H213.059ZM221.403 96.6551H150.469V115.345H221.403V96.6551ZM158.814 105V12.8039H140.124V105H158.814ZM150.469 21.1487H219.654V2.45902H150.469V21.1487ZM211.309 12.8039V28.2974H229.999V12.8039H211.309ZM219.654 19.9526H172.134V38.6423H219.654V19.9526ZM161.789 30.2974V48.7515H180.479V30.2974H161.789ZM172.134 59.0963H213.868V40.4066H172.134V59.0963ZM205.523 50.7514V65.7067H224.213V50.7514H205.523ZM213.868 57.3619H172.134V76.0516H213.868V57.3619ZM161.789 67.7067V87.5064H180.479V67.7067H161.789ZM172.134 97.8513H221.403V79.1616H172.134V97.8513ZM317.915 100.25L300.346 74.8712L284.979 85.5096L302.549 110.888L317.915 100.25ZM262.969 80.7596V105H281.659V80.7596H262.969ZM271.314 96.6551H251.514V115.345H271.314V96.6551ZM259.859 105V12.8039H241.169V105H259.859ZM251.514 21.1487H291.288V2.45902H251.514V21.1487ZM291.288 21.1487C298.611 21.1487 304.452 22.3704 309.076 24.4784L316.829 7.47247C309.252 4.01838 300.65 2.45902 291.288 2.45902V21.1487ZM309.123 24.4995C313.866 26.6305 317.146 29.4657 319.378 32.9052L335.055 22.7292C330.649 15.9417 324.419 10.8824 316.782 7.45134L309.123 24.4995ZM319.378 32.9052C321.575 36.2895 322.851 40.5183 322.851 45.9836H341.54C341.54 37.4541 339.497 29.5719 335.055 22.7292L319.378 32.9052ZM322.851 45.9836C322.851 51.3998 321.555 55.5936 319.307 58.9664L334.857 69.3336C339.427 62.4794 341.54 54.5623 341.54 45.9836H322.851ZM319.285 58.9986C317.209 62.1407 314.216 64.7555 309.95 66.7646L317.913 83.6729C324.947 80.3603 330.72 75.5959 334.879 69.3014L319.285 58.9986ZM305.854 82.0722L325.184 109.775L340.511 99.0803L321.181 71.3773L305.854 82.0722ZM332.028 96.6551H311.054V115.345H332.028V96.6551ZM319.472 45.9836C319.472 38.514 316.951 31.5511 310.92 26.6317L299.106 41.1137C299.894 41.7564 300.782 42.8674 300.782 45.9836H319.472ZM311.033 26.7247C305.303 21.8999 297.823 20.2217 290.076 20.2217V38.9114C295.428 38.9114 297.905 40.1039 298.994 41.0207L311.033 26.7247ZM290.076 20.2217H273.314V38.9114H290.076V20.2217ZM262.969 30.5666V61.4006H281.659V30.5666H262.969ZM273.314 71.7455H290.076V53.0558H273.314V71.7455ZM290.076 71.7455C297.823 71.7455 305.303 70.0673 311.033 65.2425L298.994 50.9465C297.905 51.8633 295.428 53.0558 290.076 53.0558V71.7455ZM311.033 65.2425C316.913 60.2904 319.472 53.4305 319.472 45.9836H300.782C300.782 48.9431 299.931 50.1571 298.994 50.9466L311.033 65.2425ZM405.312 98.2699C397.1 98.2699 389.918 96.5177 383.574 93.1636L374.838 109.686C384.104 114.585 394.326 116.96 405.312 116.96V98.2699ZM383.688 93.2246C377.38 89.7772 372.498 85.1282 368.884 79.2007L352.927 88.9307C358.284 97.7158 365.603 104.639 374.725 109.625L383.688 93.2246ZM368.953 79.315C365.473 73.4214 363.657 66.6973 363.657 58.9019H344.967C344.967 69.7663 347.546 79.8182 352.858 88.8165L368.953 79.315ZM363.657 58.9019C363.657 51.1053 365.473 44.4461 368.927 38.6662L352.884 29.0792C347.546 38.0118 344.967 48.0388 344.967 58.9019H363.657ZM368.91 38.6947C372.52 32.7014 377.374 28.0916 383.614 24.7538L374.799 8.27353C365.609 13.1891 358.261 20.152 352.901 29.0506L368.91 38.6947ZM383.648 24.7355C389.965 21.3227 397.162 19.5339 405.447 19.5339V0.844235C394.354 0.844235 384.057 3.27183 374.765 8.29189L383.648 24.7355ZM405.447 19.5339C412.501 19.5339 418.554 20.7701 423.764 23.0539L431.267 5.93653C423.379 2.47879 414.72 0.844235 405.447 0.844235V19.5339ZM423.806 23.0724C428.909 25.2789 433.109 28.3467 436.535 32.2844L450.636 20.0183C445.31 13.8958 438.798 9.19288 431.225 5.91796L423.806 23.0724ZM437.165 20.6534L424.627 32.2268L437.304 45.96L449.842 34.3866L437.165 20.6534ZM436.421 32.7203C428.443 23.9837 418.292 19.4143 406.523 19.4143V38.104C412.923 38.104 418.103 40.3763 422.62 45.323L436.421 32.7203ZM406.523 19.4143C399.251 19.4143 392.425 21.052 386.294 24.5382L395.533 40.785C398.552 39.0679 402.133 38.104 406.523 38.104V19.4143ZM386.416 24.4701C380.312 27.8216 375.474 32.6078 372.025 38.6731L388.272 47.9115C390.026 44.8263 392.365 42.5253 395.411 40.8531L386.416 24.4701ZM371.957 38.795C368.603 44.9041 367.036 51.6862 367.036 58.9019H385.725C385.725 54.4553 386.67 50.831 388.34 47.7896L371.957 38.795ZM367.036 58.9019C367.036 66.1177 368.603 72.8998 371.957 79.0089L388.34 70.0143C386.67 66.9729 385.725 63.3485 385.725 58.9019H367.036ZM372.025 79.1307C375.458 85.1682 380.257 89.9672 386.294 93.4002L395.533 77.1534C392.42 75.3832 390.042 73.0055 388.272 69.8924L372.025 79.1307ZM386.416 93.4683C392.525 96.8223 399.307 98.3895 406.523 98.3895V79.6998C402.077 79.6998 398.452 78.7551 395.411 77.0853L386.416 93.4683ZM406.523 98.3895C418.332 98.3895 428.494 93.7459 436.46 84.9159L422.582 72.397C418.053 77.418 412.883 79.6998 406.523 79.6998V98.3895ZM424.631 85.4468L437.17 97.0211L449.847 83.2879L437.308 71.7135L424.631 85.4468ZM436.495 85.4432C433.067 89.4504 428.878 92.5383 423.806 94.7314L431.225 111.886C438.839 108.593 445.37 103.82 450.698 97.5911L436.495 85.4432ZM423.806 94.7314C418.481 97.0345 412.364 98.2699 405.312 98.2699V116.96C414.588 116.96 423.273 115.324 431.225 111.886L423.806 94.7314ZM470.688 21.1487H490.488V2.45902H470.688V21.1487ZM482.143 12.8039V105H500.833V12.8039H482.143ZM490.488 96.6551H470.688V115.345H490.488V96.6551ZM479.033 105V12.8039H460.343V105H479.033ZM291.84 70.4148H273.314V89.1045H291.84V70.4148ZM262.969 61.4006C262.969 67.114 267.6 71.7455 273.314 71.7455V53.0558C277.922 53.0558 281.659 56.7919 281.659 61.4006H262.969ZM273.314 20.2217C267.6 20.2217 262.969 24.8533 262.969 30.5666H281.659C281.659 35.1753 277.922 38.9114 273.314 38.9114V20.2217ZM325.184 109.775C321.324 104.243 325.282 96.6551 332.028 96.6551V115.345C340.39 115.345 345.297 105.938 340.511 99.0803L325.184 109.775ZM309.95 66.7646C304.321 69.4155 302.066 76.644 305.854 82.0722L321.181 71.3773C324.246 75.7694 322.398 81.5604 317.913 83.6729L309.95 66.7646ZM259.859 12.8039C259.859 17.4126 256.123 21.1487 251.514 21.1487V2.45902C245.801 2.45902 241.169 7.09061 241.169 12.8039H259.859ZM251.514 96.6551C256.123 96.6551 259.859 100.391 259.859 105H241.169C241.169 110.713 245.801 115.345 251.514 115.345V96.6551ZM262.969 105C262.969 100.391 266.705 96.6551 271.314 96.6551V115.345C277.027 115.345 281.659 110.713 281.659 105H262.969ZM281.659 80.7596C281.659 85.3684 277.922 89.1045 273.314 89.1045V70.4148C267.6 70.4148 262.969 75.0463 262.969 80.7596H281.659ZM300.346 74.8712C298.413 72.0802 295.235 70.4148 291.84 70.4148V89.1045C289.102 89.1045 286.538 87.761 284.979 85.5096L300.346 74.8712ZM302.549 110.888C304.481 113.679 307.66 115.345 311.054 115.345V96.6551C313.793 96.6551 316.357 97.9986 317.915 100.25L302.549 110.888ZM161.789 87.5064C161.789 93.2197 166.421 97.8513 172.134 97.8513V79.1616C176.743 79.1616 180.479 82.8977 180.479 87.5064H161.789ZM172.134 57.3619C166.421 57.3619 161.789 61.9934 161.789 67.7067H180.479C180.479 72.3155 176.743 76.0516 172.134 76.0516V57.3619ZM205.523 65.7067C205.523 61.098 209.259 57.3619 213.868 57.3619V76.0516C219.581 76.0516 224.213 71.4201 224.213 65.7067H205.523ZM470.688 96.6551C475.297 96.6551 479.033 100.391 479.033 105H460.343C460.343 110.713 464.975 115.345 470.688 115.345V96.6551ZM213.868 59.0963C209.259 59.0963 205.523 55.3602 205.523 50.7514H224.213C224.213 45.0381 219.581 40.4066 213.868 40.4066V59.0963ZM482.143 105C482.143 100.391 485.879 96.6551 490.488 96.6551V115.345C496.201 115.345 500.833 110.713 500.833 105H482.143ZM161.789 48.7515C161.789 54.4648 166.421 59.0963 172.134 59.0963V40.4066C176.743 40.4066 180.479 44.1427 180.479 48.7515H161.789ZM490.488 21.1487C485.879 21.1487 482.143 17.4126 482.143 12.8039H500.833C500.833 7.09057 496.201 2.45902 490.488 2.45902V21.1487ZM172.134 19.9526C166.421 19.9526 161.789 24.5841 161.789 30.2974H180.479C180.479 34.9062 176.743 38.6423 172.134 38.6423V19.9526ZM470.688 2.45902C464.975 2.45902 460.343 7.09061 460.343 12.8039H479.033C479.033 17.4126 475.297 21.1487 470.688 21.1487V2.45902ZM211.309 28.2974C211.309 23.6887 215.045 19.9526 219.654 19.9526V38.6423C225.367 38.6423 229.999 34.0108 229.999 28.2974H211.309ZM219.654 21.1487C215.045 21.1487 211.309 17.4126 211.309 12.8039H229.999C229.999 7.09055 225.367 2.45902 219.654 2.45902V21.1487ZM437.17 97.0211C433.959 94.057 433.494 88.9518 436.495 85.4432L450.698 97.5911C454.387 93.2777 453.836 86.9702 449.847 83.2879L437.17 97.0211ZM158.814 12.8039C158.814 17.4126 155.078 21.1487 150.469 21.1487V2.45902C144.755 2.45902 140.124 7.09061 140.124 12.8039H158.814ZM436.46 84.9159C433.469 88.2318 428.162 88.7053 424.631 85.4468L437.308 71.7135C432.945 67.6857 426.333 68.2389 422.582 72.397L436.46 84.9159ZM150.469 96.6551C155.078 96.6551 158.814 100.391 158.814 105H140.124C140.124 110.713 144.756 115.345 150.469 115.345V96.6551ZM213.059 105C213.059 100.391 216.795 96.6551 221.403 96.6551V115.345C227.117 115.345 231.748 110.713 231.748 105H213.059ZM231.748 89.5064C231.748 83.7931 227.117 79.1616 221.403 79.1616V97.8513C216.795 97.8513 213.059 94.1152 213.059 89.5064H231.748ZM107.007 105.024C106.994 100.406 110.734 96.6551 115.352 96.6551V115.345C121.077 115.345 125.713 110.695 125.697 104.97L107.007 105.024ZM115.089 21.1487C110.489 21.1487 106.757 17.4271 106.744 12.8277L125.434 12.7743C125.417 7.0726 120.791 2.45902 115.089 2.45902V21.1487ZM105.936 17.0608C104.433 19.5949 101.705 21.1487 98.7582 21.1487V2.45902C95.1057 2.45902 91.7239 4.3852 89.8606 7.52668L105.936 17.0608ZM54.6025 73.7282C58.6398 80.4314 68.37 80.3983 72.3617 73.6681L56.2867 64.1339C59.5067 58.7049 67.3557 58.6782 70.6125 64.0854L54.6025 73.7282ZM27.6494 21.1487C24.7232 21.1487 22.0107 19.616 20.501 17.1093L36.511 7.46652C34.6394 4.35907 31.2769 2.45902 27.6494 2.45902V21.1487ZM424.627 32.2268C428.142 28.9818 433.423 29.437 436.421 32.7203L422.62 45.323C426.38 49.4403 432.958 49.9711 437.304 45.96L424.627 32.2268ZM19.5275 12.8039C19.5275 17.4126 15.7914 21.1487 11.1826 21.1487V2.45902C5.46928 2.45902 0.837766 7.09061 0.837766 12.8039H19.5275ZM436.535 32.2844C433.485 28.7789 433.935 23.6344 437.165 20.6534L449.842 34.3866C453.854 30.6831 454.384 24.3275 450.636 20.0183L436.535 32.2844ZM11.1826 96.6551C15.7914 96.6551 19.5275 100.391 19.5275 105H0.837766C0.837766 110.713 5.4693 115.345 11.1826 115.345V96.6551ZM21.2918 105C21.2918 100.391 25.0279 96.6551 29.6366 96.6551V115.345C35.35 115.345 39.9815 110.713 39.9815 105H21.2918ZM40.4747 48.8852C35.0392 39.9497 21.2918 43.8026 21.2918 54.2615H39.9815C39.9815 62.6983 28.8919 65.8063 24.5072 58.5983L40.4747 48.8852ZM58.7848 86.6973C61.6979 86.6973 64.4002 88.2164 65.9142 90.7052L49.9467 100.418C51.8236 103.504 55.1735 105.387 58.7848 105.387V86.6973ZM60.3073 90.7731C61.812 88.2458 64.5361 86.6973 67.4775 86.6973V105.387C71.1238 105.387 74.5009 103.467 76.3662 100.334L60.3073 90.7731ZM105.12 53.0776C105.095 42.58 91.2567 38.7901 85.8864 47.8101L101.945 57.3712C97.6134 64.6473 86.4505 61.5901 86.4303 53.1221L105.12 53.0776ZM86.5539 105.025C86.5674 110.728 91.195 115.345 96.8987 115.345V96.6551C101.5 96.6551 105.233 100.379 105.244 104.98L86.5539 105.025Z" fill="#119DA4" mask="url(#path-1-outside-1_268_79)"/>
</svg>
